<svg xmlns="http://www.w3.org/2000/svg" version="1.1" xmlns:xlink="http://www.w3.org/1999/xlink" xmlns:svgjs="http://svgjs.dev/svgjs" width="1000" height="1000" viewBox="0 0 1000 1000"><rect width="1000" height="1000" fill="#000000"></rect><g transform="matrix(0.7,0,0,0.7,150.07466666666664,271.7354542857143)"><svg viewBox="0 0 375 245" data-background-color="#000000" preserveAspectRatio="xMidYMid meet" height="653" width="1000" xmlns="http://www.w3.org/2000/svg" xmlns:xlink="http://www.w3.org/1999/xlink"><g id="tight-bounds" transform="matrix(1,0,0,1,-0.03976000000000113,-0.15251999999999555)"><svg viewBox="0 0 375.07953 245.30552000000003" height="245.30552000000003" width="375.07953"><g><svg></svg></g><g><svg viewBox="0 0 375.07953 245.30552000000003" height="245.30552000000003" width="375.07953"><g transform="matrix(1,0,0,1,-10.22024,-1.8944799999999873)"><path d="M10.22 245.306v-243.412h375.08v243.412l-102.853 0 0-12.773h90.08v-217.866h-349.534l0 216.042h-10.727l0 14.597z" fill="#ffffff" fill-rule="nonzero" stroke="none" stroke-width="1" stroke-linecap="butt" stroke-linejoin="miter" stroke-miterlimit="10" stroke-dasharray="" stroke-dashoffset="0" font-family="none" font-weight="none" font-size="none" text-anchor="none" style="mix-blend-mode: normal" data-fill-palette-color="tertiary"></path><g><path d="M51.9 247.2h-1.316v-12.667h1.298v0.632c0.889-0.538 1.766-0.807 2.632-0.807v0c1.111 0 1.918 0.353 2.421 1.059 0.503 0.709 0.754 1.876 0.754 3.502 0 1.626-0.295 2.792-0.884 3.499-0.592 0.709-1.572 1.063-2.94 1.063v0c-0.713 0-1.368-0.064-1.965-0.193v0zM54.321 235.533v0c-0.351 0-0.727 0.058-1.13 0.176-0.405 0.117-0.724 0.234-0.958 0.351v0l-0.333 0.175v5.912c0.83 0.129 1.462 0.193 1.895 0.193v0c0.947 0 1.612-0.269 1.993-0.807 0.379-0.538 0.568-1.415 0.568-2.631 0-1.216-0.173-2.082-0.519-2.597-0.344-0.515-0.849-0.772-1.516-0.772zM61.251 243.305h-1.316v-12.596h1.316zM70.075 237.182v0 4.492c0.035 0.433 0.374 0.69 1.018 0.772v0l-0.053 1.035c-0.924 0-1.62-0.234-2.087-0.702v0c-1.053 0.468-2.105 0.702-3.158 0.702v0c-0.807 0-1.421-0.228-1.842-0.685-0.421-0.456-0.632-1.111-0.632-1.964 0-0.854 0.216-1.483 0.649-1.888 0.433-0.402 1.111-0.65 2.035-0.744v0l2.755-0.263v-0.755c0-0.597-0.129-1.023-0.386-1.28-0.257-0.257-0.608-0.386-1.053-0.386v0c-0.936 0-1.906 0.058-2.912 0.175v0l-0.544 0.053-0.053-1c1.287-0.257 2.427-0.386 3.421-0.386 0.994 0 1.717 0.228 2.169 0.684 0.449 0.456 0.674 1.17 0.673 2.14zM64.672 240.761v0c0 1.076 0.444 1.614 1.333 1.614v0c0.795 0 1.579-0.135 2.351-0.403v0l0.404-0.14v-2.895l-2.597 0.245c-0.526 0.047-0.906 0.199-1.14 0.457-0.234 0.257-0.351 0.632-0.351 1.122zM73.988 236.182v7.123h-1.316v-8.772h1.298v0.614c0.947-0.526 1.854-0.789 2.719-0.789v0c1.17 0 1.957 0.316 2.362 0.947 0.402 0.632 0.604 1.754 0.603 3.369v0 4.631h-1.298v-4.596c0-1.216-0.119-2.05-0.358-2.502-0.241-0.449-0.753-0.674-1.537-0.674v0c-0.374 0-0.768 0.055-1.182 0.165-0.416 0.112-0.736 0.221-0.958 0.326v0zM87.619 243.305l-2.491-8.772h1.316l2.193 7.632h0.579l2.21-7.632h1.316l-3.649 12.667h-1.316l1.141-3.895zM93.883 238.902c0-1.602 0.287-2.76 0.859-3.474 0.573-0.713 1.542-1.07 2.905-1.07 1.361 0 2.326 0.357 2.895 1.07 0.566 0.713 0.849 1.871 0.849 3.474 0 1.602-0.269 2.766-0.807 3.491-0.538 0.725-1.52 1.088-2.947 1.088-1.427 0-2.409-0.363-2.947-1.088-0.538-0.725-0.807-1.889-0.807-3.491zM95.233 238.874c0 1.282 0.156 2.18 0.467 2.694 0.309 0.515 0.958 0.772 1.947 0.772 0.987 0 1.633-0.255 1.937-0.765 0.304-0.508 0.456-1.405 0.456-2.691 0-1.287-0.17-2.173-0.508-2.66-0.339-0.484-0.967-0.726-1.885-0.726-0.919 0-1.551 0.242-1.894 0.726-0.346 0.487-0.519 1.37-0.52 2.65zM109.005 241.656v-7.123h1.316v8.772h-1.316v-0.614c-0.877 0.526-1.743 0.789-2.596 0.79v0c-1.193 0-1.985-0.31-2.376-0.93-0.393-0.62-0.589-1.766-0.589-3.439v0-4.579h1.316v4.562c0 1.275 0.111 2.129 0.333 2.561 0.222 0.433 0.725 0.649 1.509 0.649v0c0.386 0 0.778-0.056 1.175-0.168 0.398-0.11 0.702-0.218 0.913-0.323v0zM114.163 243.305h-1.315v-8.772h1.298v1.193c1.018-0.702 2.088-1.164 3.21-1.386v0 1.334c-0.491 0.094-1.002 0.24-1.533 0.438-0.533 0.199-0.94 0.374-1.221 0.527v0l-0.439 0.228zM124.093 236.06v7.245h-1.316v-12.596h1.316v4.315c0.936-0.444 1.836-0.667 2.702-0.666v0c1.17 0 1.957 0.316 2.361 0.947 0.402 0.632 0.604 1.754 0.604 3.369v0 4.631h-1.316v-4.596c0-1.216-0.119-2.05-0.358-2.502-0.241-0.449-0.747-0.674-1.519-0.674v0c-0.737 0-1.45 0.135-2.14 0.404v0zM131.813 238.902c0-1.602 0.287-2.76 0.859-3.474 0.573-0.713 1.542-1.07 2.906-1.07 1.361 0 2.326 0.357 2.894 1.07 0.566 0.713 0.849 1.871 0.849 3.474 0 1.602-0.269 2.766-0.807 3.491-0.538 0.725-1.52 1.088-2.947 1.088-1.427 0-2.409-0.363-2.947-1.088-0.538-0.725-0.807-1.889-0.807-3.491zM133.163 238.874c0 1.282 0.156 2.18 0.467 2.694 0.309 0.515 0.958 0.772 1.948 0.772 0.987 0 1.633-0.255 1.936-0.765 0.304-0.508 0.456-1.405 0.457-2.691 0-1.287-0.17-2.173-0.509-2.66-0.339-0.484-0.967-0.726-1.884-0.726-0.919 0-1.551 0.242-1.895 0.726-0.346 0.487-0.519 1.37-0.52 2.65zM142.778 236.182v7.123h-1.316v-8.772h1.298v0.614c0.877-0.526 1.731-0.789 2.561-0.789v0c1.088 0 1.848 0.298 2.281 0.895v0c0.386-0.234 0.887-0.442 1.502-0.625 0.613-0.18 1.153-0.27 1.621-0.27v0c1.17 0 1.957 0.312 2.361 0.937 0.402 0.627 0.604 1.753 0.604 3.379v0 4.631h-1.316v-4.596c0-1.216-0.117-2.05-0.351-2.502-0.234-0.449-0.731-0.674-1.491-0.674v0c-0.386 0-0.784 0.055-1.193 0.165-0.409 0.112-0.725 0.221-0.947 0.326v0l-0.334 0.158c0.152 0.386 0.228 1.24 0.228 2.562v0 4.561h-1.315v-4.526c0-1.263-0.115-2.12-0.344-2.572-0.227-0.449-0.726-0.674-1.499-0.674v0c-0.374 0-0.758 0.055-1.15 0.165-0.391 0.112-0.691 0.221-0.902 0.326v0zM162.093 242.218v0l0.509-0.053 0.035 1.035c-1.333 0.187-2.474 0.281-3.421 0.281v0c-1.263 0-2.158-0.366-2.684-1.099-0.526-0.73-0.789-1.867-0.789-3.41v0c0-3.076 1.222-4.614 3.666-4.614v0c1.181 0 2.064 0.33 2.649 0.989 0.585 0.662 0.877 1.701 0.878 3.116v0l-0.071 1h-5.789c0 0.971 0.175 1.69 0.526 2.158 0.351 0.468 0.961 0.702 1.832 0.702 0.873 0 1.759-0.035 2.659-0.105zM157.058 238.41h4.562c0-1.076-0.173-1.836-0.52-2.28-0.344-0.444-0.904-0.667-1.68-0.667-0.779 0-1.364 0.234-1.755 0.702-0.393 0.468-0.595 1.216-0.607 2.245zM170.216 243.305l-2.087-8.772h1.315l1.772 7.632h0.281l2.088-7.456h1.368l2.088 7.456h0.298l1.755-7.632h1.315l-2.087 8.772h-2.193l-1.86-6.859-1.86 6.859zM183.532 243.305h-1.316v-8.772h1.316zM183.532 232.551h-1.316v-1.527h1.316zM190.602 234.533v1.141h-2.789v4.193c0 1.006 0.074 1.667 0.221 1.982 0.145 0.316 0.492 0.474 1.042 0.474v0l1.562-0.105 0.087 1.087c-0.784 0.129-1.38 0.193-1.789 0.193v0c-0.912 0-1.544-0.222-1.895-0.666-0.351-0.444-0.526-1.292-0.526-2.544v0-4.614h-1.246v-1.141h1.246v-2.684h1.298v2.684zM193.532 236.06v7.245h-1.316v-12.596h1.316v4.315c0.936-0.444 1.836-0.667 2.702-0.666v0c1.17 0 1.957 0.316 2.361 0.947 0.402 0.632 0.604 1.754 0.604 3.369v0 4.631h-1.316v-4.596c0-1.216-0.119-2.05-0.358-2.502-0.241-0.449-0.747-0.674-1.519-0.674v0c-0.737 0-1.45 0.135-2.14 0.404v0zM206.813 247.2h-1.316v-12.667h1.299v0.632c0.889-0.538 1.766-0.807 2.631-0.807v0c1.111 0 1.918 0.353 2.421 1.059 0.503 0.709 0.754 1.876 0.755 3.502 0 1.626-0.295 2.792-0.885 3.499-0.592 0.709-1.572 1.063-2.94 1.063v0c-0.713 0-1.368-0.064-1.965-0.193v0zM209.234 235.533v0c-0.351 0-0.727 0.058-1.13 0.176-0.405 0.117-0.724 0.234-0.958 0.351v0l-0.333 0.175v5.912c0.83 0.129 1.462 0.193 1.895 0.193v0c0.947 0 1.612-0.269 1.993-0.807 0.379-0.538 0.568-1.415 0.568-2.631 0-1.216-0.172-2.082-0.516-2.597-0.346-0.515-0.853-0.772-1.519-0.772zM216.164 243.305h-1.316v-12.596h1.316zM224.989 237.182v0 4.492c0.035 0.433 0.374 0.69 1.017 0.772v0l-0.052 1.035c-0.924 0-1.62-0.234-2.088-0.702v0c-1.053 0.468-2.105 0.702-3.158 0.702v0c-0.807 0-1.421-0.228-1.842-0.685-0.421-0.456-0.632-1.111-0.632-1.964 0-0.854 0.216-1.483 0.649-1.888 0.433-0.402 1.111-0.65 2.035-0.744v0l2.755-0.263v-0.755c0-0.597-0.129-1.023-0.386-1.28-0.257-0.257-0.608-0.386-1.053-0.386v0c-0.936 0-1.906 0.058-2.912 0.175v0l-0.544 0.053-0.053-1c1.287-0.257 2.427-0.386 3.421-0.386 0.994 0 1.717 0.228 2.169 0.684 0.449 0.456 0.674 1.17 0.674 2.14zM219.585 240.761v0c0 1.076 0.444 1.614 1.333 1.614v0c0.795 0 1.579-0.135 2.351-0.403v0l0.404-0.14v-2.895l-2.597 0.245c-0.526 0.047-0.906 0.199-1.14 0.457-0.234 0.257-0.351 0.632-0.351 1.122zM228.901 236.182v7.123h-1.316v-8.772h1.298v0.614c0.947-0.526 1.854-0.789 2.72-0.789v0c1.17 0 1.957 0.316 2.361 0.947 0.402 0.632 0.604 1.754 0.604 3.369v0 4.631h-1.299v-4.596c0-1.216-0.119-2.05-0.358-2.502-0.241-0.449-0.753-0.674-1.536-0.674v0c-0.374 0-0.768 0.055-1.183 0.165-0.416 0.112-0.736 0.221-0.958 0.326v0zM236.62 238.902c0-1.602 0.287-2.76 0.86-3.474 0.573-0.713 1.542-1.07 2.905-1.07 1.361 0 2.326 0.357 2.895 1.07 0.566 0.713 0.849 1.871 0.849 3.474 0 1.602-0.269 2.766-0.807 3.491-0.538 0.725-1.52 1.088-2.947 1.088-1.427 0-2.409-0.363-2.948-1.088-0.538-0.725-0.807-1.889-0.807-3.491zM237.971 238.874c0 1.282 0.156 2.18 0.467 2.694 0.309 0.515 0.958 0.772 1.947 0.772 0.987 0 1.633-0.255 1.937-0.765 0.304-0.508 0.456-1.405 0.456-2.691 0-1.287-0.17-2.173-0.509-2.66-0.339-0.484-0.967-0.726-1.884-0.726-0.919 0-1.551 0.242-1.895 0.726-0.346 0.487-0.519 1.37-0.519 2.65z" fill="#ffffff" fill-rule="nonzero" stroke="none" stroke-width="1" stroke-linecap="butt" stroke-linejoin="miter" stroke-miterlimit="10" stroke-dasharray="" stroke-dashoffset="0" font-family="none" font-weight="none" font-size="none" text-anchor="none" style="mix-blend-mode: normal" data-fill-palette-color="secondary"></path></g></g><g transform="matrix(1,0,0,1,29.33176499999999,51.8365868568618)"><svg viewBox="0 0 316.416 141.63234628627643" height="141.63234628627643" width="316.416"><g><svg viewBox="0 0 316.416 141.63234628627643" height="141.63234628627643" width="316.416"><g><svg viewBox="0 0 316.416 141.63234628627643" height="141.63234628627643" width="316.416"><g><svg viewBox="0 0 316.416 141.63234628627643" height="141.63234628627643" width="316.416"><g id="textblocktransform"><svg viewBox="0 0 316.416 141.63234628627643" height="141.63234628627643" width="316.416" id="textblock"><g><svg viewBox="0 0 316.416 141.63234628627643" height="141.63234628627643" width="316.416"><g transform="matrix(1,0,0,1,0,0)"><svg width="316.416" viewBox="3.9 -35 101.64 45.5" height="141.63234628627643" data-palette-color="#89939e"><path d="M3.9 10.5L3.9-25.05 6.7-25.05 6.45-22.5Q7.8-23.95 9.63-24.7 11.45-25.45 13.25-25.45L13.25-25.45Q17.9-25.45 20.33-22.75 22.75-20.05 22.75-15.75L22.75-15.75 22.75-8.8Q22.75-4.25 20.2-1.83 17.65 0.6 13.45 0.6L13.45 0.6Q11.3 0.6 9.65 0 8-0.6 6.7-2.1L6.7-2.1 6.7 9.4 3.9 10.5ZM19.95-15.95Q19.95-19.6 18.03-21.25 16.1-22.9 13.45-22.9L13.45-22.9Q10.75-22.9 8.8-21.28 6.85-19.65 6.7-16.2L6.7-16.2 6.7-8.3Q6.7-5.05 8.55-3.5 10.4-1.95 13.45-1.95L13.45-1.95Q16.2-1.95 18.07-3.58 19.95-5.2 19.95-8.3L19.95-8.3 19.95-15.95ZM28.3 0L28.3-35 31.1-35 31.1 0 28.3 0ZM56.2 0Q50.8 0.55 48.4 0.55L48.4 0.55Q43.15 0.55 40.05-1.4 36.95-3.35 36.95-8.45L36.95-8.45 36.95-12.6Q36.95-17.55 40.4-19.25L40.4-19.25Q42.05-20.1 44.6-20.1L44.6-20.1Q46.95-20.1 49.35-19.33 51.75-18.55 53.4-17.3L53.4-17.3Q53.4-20.05 51.8-21.68 50.2-23.3 45.65-23.3L45.65-23.3 45.8-25.45Q50.6-25.45 52.87-23.93 55.15-22.4 55.67-20.3 56.2-18.2 56.2-14.9L56.2-14.9 56.2 0ZM53.4-15.15Q51.35-16.1 49.02-16.8 46.7-17.5 44.75-17.5L44.75-17.5Q39.7-17.5 39.7-12.45L39.7-12.45 39.7-8.1Q39.7-4.85 41.95-3.38 44.2-1.9 48.35-1.9L48.35-1.9Q50.5-1.9 53.4-2.3L53.4-2.3 53.4-15.15ZM76.89 0L76.89-17.15Q76.89-20.2 75.12-21.58 73.34-22.95 70.54-22.95L70.54-22.95Q68.84-22.95 67.09-22.48 65.34-22 63.99-21.25L63.99-21.25 63.99 0 61.19 0 61.19-25.05 63.99-25.05 63.79-23.35Q64.99-24.4 66.84-24.93 68.69-25.45 70.69-25.45L70.69-25.45Q73.44-25.45 75.39-24.55L75.39-24.55Q77.39-23.65 78.52-21.85 79.64-20.05 79.64-17.3L79.64-17.3 79.64 0 76.89 0ZM105.54-9.2Q105.54-5 103.24-2.25 100.94 0.5 96.29 0.5L96.29 0.5Q91.64 0.5 89.27-2.27 86.89-5.05 86.89-9.2L86.89-9.2 86.89-15.8Q86.89-20.55 89.32-23.08 91.74-25.6 96.29-25.6L96.29-25.6Q100.64-25.6 103.09-22.98 105.54-20.35 105.54-15.8L105.54-15.8 105.54-9.2ZM102.74-15.8Q102.74-19.55 101.02-21.3 99.29-23.05 96.29-23.05L96.29-23.05Q93.19-23.05 91.44-21.3 89.69-19.55 89.69-15.8L89.69-15.8 89.69-8.7Q89.69-5.7 91.47-3.85 93.24-2 96.29-2L96.29-2Q99.39-2 101.07-3.83 102.74-5.65 102.74-8.7L102.74-8.7 102.74-15.8Z" opacity="1" transform="matrix(1,0,0,1,0,0)" fill="#ffffff" class="wordmark-text-0" data-fill-palette-color="primary" id="text-0"></path></svg></g></svg></g></svg></g></svg></g></svg></g></svg></g></svg></g></svg></g><defs></defs></svg><rect width="375.07953" height="245.30552000000003" fill="none" stroke="none" visibility="hidden"></rect></g></svg></g></svg>